<svg aria-hidden="true" style="width:0;height:0;position:absolute;overflow:hidden" xmlns="http://www.w3.org/2000/svg"><defs><symbol id="icon-search" viewBox="0 0 32 32"><path d="m31.008 27.231-7.58-6.447c-.784-.705-1.622-1.029-2.299-.998a11.954 11.954 0 0 0 2.87-7.787c0-6.627-5.373-12-12-12s-12 5.373-12 12 5.373 12 12 12c2.972 0 5.691-1.081 7.787-2.87-.031.677.293 1.515.998 2.299l6.447 7.58c1.104 1.226 2.907 1.33 4.007.23s.997-2.903-.23-4.007zM12 20a8 8 0 1 1 0-16 8 8 0 0 1 0 16z"/></symbol><symbol id="icon-heart" viewBox="0 0 32 32"><path d="M23.6 2c-3.363 0-6.258 2.736-7.599 5.594C14.659 4.736 11.764 2 8.4 2 3.763 2 0 5.764 0 10.401c0 9.433 9.516 11.906 16.001 21.232C22.131 22.365 32 19.533 32 10.401 32 5.764 28.237 2 23.6 2z"/></symbol><symbol id="icon-film" viewBox="0 0 32 32"><path stroke-linejoin="round" stroke-linecap="round" stroke-width="2.667" d="M26.427 2.667H5.574a2.907 2.907 0 0 0-2.907 2.907v20.853a2.907 2.907 0 0 0 2.907 2.907h20.853a2.907 2.907 0 0 0 2.907-2.907V5.574a2.907 2.907 0 0 0-2.907-2.907zM9.333 2.667v26.667M22.667 2.667v26.667M2.667 16h26.667M2.667 9.333h6.667M2.667 22.667h6.667M22.667 22.667h6.667M22.667 9.333h6.667"/></symbol><symbol id="hide" viewBox="10 10 20 22"><path d="M29.667 12.88 27.787 11l-7.454 7.453L12.88 11 11 12.88l7.453 7.453L11 27.787l1.88 1.88 7.453-7.454 7.454 7.454 1.88-1.88-7.454-7.454 7.454-7.453Z"/></symbol><symbol id="icon-github" viewBox="0 0 32 32"><path d="M16 23.992a7.992 7.992 0 1 0 0-15.984 7.992 7.992 0 1 0 0 15.984z"/><path style="fill:var(--color2,#fff)" d="m14.781 20.666-.007-.858c-1.368.305-1.657-.676-1.657-.676-.224-.583-.546-.738-.546-.738-.447-.313.034-.306.034-.306.494.036.753.52.753.52.439.771 1.151.548 1.431.419.045-.326.172-.548.312-.674-1.092-.127-2.24-.56-2.24-2.492 0-.55.192-1.001.506-1.353-.05-.128-.22-.64.048-1.335 0 0 .413-.136 1.352.517a4.597 4.597 0 0 1 1.232-.17c.418.002.838.058 1.231.17.939-.653 1.351-.517 1.351-.517.268.694.1 1.207.049 1.335.315.353.505.803.505 1.353 0 1.937-1.15 2.364-2.246 2.488.177.156.334.463.334.934 0 .674-.006 1.218-.006 1.383 0 .135.089.292.338.242 1.953-.668 3.36-2.557 3.36-4.784 0-2.785-2.202-5.043-4.918-5.043s-4.918 2.258-4.918 5.043c0 2.228 1.409 4.118 3.364 4.785.246.046.336-.11.336-.243z"/></symbol><symbol id="icon-instagram" viewBox="0 0 32 32"><path d="M16 8.013c4.408 0 7.987 3.579 7.987 7.987S20.408 23.987 16 23.987c-4.408 0-7.987-3.579-7.987-7.987S11.592 8.013 16 8.013zm0 2.995c-1.356 0-1.526.006-2.058.03-.531.024-.894.109-1.212.232-.328.128-.607.298-.884.576s-.448.556-.576.884c-.123.318-.208.68-.232 1.212-.024.532-.03.702-.03 2.058s.006 1.526.03 2.058c.024.531.109.894.232 1.212.128.328.298.607.576.884s.556.448.884.576c.318.123.68.208 1.212.232.532.024.702.03 2.058.03s1.526-.006 2.058-.03c.531-.024.894-.109 1.212-.232.328-.128.607-.298.884-.576s.448-.556.576-.884c.123-.318.208-.68.232-1.212.024-.532.03-.702.03-2.058s-.006-1.526-.03-2.058c-.024-.531-.109-.894-.232-1.212-.128-.328-.298-.607-.576-.884s-.556-.448-.884-.576c-.318-.123-.68-.208-1.212-.232-.532-.024-.702-.03-2.058-.03zm0 .899c1.333 0 1.491.005 2.017.029.487.022.751.104.927.172.233.091.399.199.574.373s.283.341.373.574c.068.176.15.44.172.927.024.526.029.684.029 2.017s-.005 1.491-.029 2.017c-.022.487-.104.751-.172.927-.091.233-.199.399-.373.574s-.341.283-.574.373c-.176.068-.44.15-.927.172-.526.024-.684.029-2.017.029s-1.491-.005-2.017-.029c-.487-.022-.751-.104-.927-.172-.233-.091-.399-.199-.574-.373s-.283-.341-.373-.574c-.068-.176-.15-.44-.172-.927-.024-.526-.029-.684-.029-2.017s.005-1.491.029-2.017c.022-.487.104-.751.172-.927.091-.233.199-.399.373-.574s.341-.283.574-.373c.176-.068.44-.15.927-.172.526-.024.684-.029 2.017-.029zm0 1.53a2.563 2.563 0 1 0 0 5.126 2.563 2.563 0 0 0 0-5.126zm0 4.227a1.664 1.664 0 1 1 0-3.328 1.664 1.664 0 0 1 0 3.328zm3.264-4.329a.599.599 0 1 1-1.198 0 .599.599 0 0 1 1.198 0z"/></symbol><symbol id="icon-telegram" viewBox="0 0 32 32"><path d="M16 1.28c8.13 0 14.72 6.59 14.72 14.72S24.13 30.72 16 30.72 1.28 24.13 1.28 16 7.87 1.28 16 1.28zM21.078 22c.271-.831 1.539-9.11 1.696-10.741.047-.494-.109-.822-.415-.969-.37-.178-.918-.089-1.553.14-.872.314-12.015 5.046-12.659 5.32-.611.259-1.188.542-1.188.952 0 .288.171.45.642.618.49.175 1.725.549 2.454.75.702.194 1.501.026 1.949-.253.475-.295 5.955-3.962 6.349-4.284s.707.09.385.412c-.321.321-4.083 3.972-4.579 4.478-.602.614-.175 1.25.229 1.505.461.291 3.78 2.516 4.28 2.874s1.007.519 1.471.519c.464 0 .708-.611.94-1.321z"/></symbol></defs></svg>