<svg aria-hidden="true" style="position: absolute; width: 0; height: 0; overflow: hidden;" version="1.1" xmlns="http://www.w3.org/2000/svg" xmlns:xlink="http://www.w3.org/1999/xlink">
<defs>
<symbol id="icon-search" viewBox="0 0 32 32">
<path d="M31.008 27.231l-7.58-6.447c-0.784-0.705-1.622-1.029-2.299-0.998 1.789-2.096 2.87-4.815 2.87-7.787 0-6.627-5.373-12-12-12s-12 5.373-12 12 5.373 12 12 12c2.972 0 5.691-1.081 7.787-2.87-0.031 0.677 0.293 1.515 0.998 2.299l6.447 7.58c1.104 1.226 2.907 1.33 4.007 0.23s0.997-2.903-0.23-4.007zM12 20c-4.418 0-8-3.582-8-8s3.582-8 8-8 8 3.582 8 8-3.582 8-8 8z"></path>
</symbol>
<symbol id="icon-heart" viewBox="0 0 32 32">
<path d="M23.6 2c-3.363 0-6.258 2.736-7.599 5.594-1.342-2.858-4.237-5.594-7.601-5.594-4.637 0-8.4 3.764-8.4 8.401 0 9.433 9.516 11.906 16.001 21.232 6.13-9.268 15.999-12.1 15.999-21.232 0-4.637-3.763-8.401-8.4-8.401z"></path>
</symbol>
<symbol id="icon-film" viewBox="0 0 32 32">
<path stroke-linejoin="round" stroke-linecap="round" stroke-miterlimit="4" stroke-width="2.6667" d="M26.427 2.667h-20.853c-1.605 0-2.907 1.301-2.907 2.907v20.853c0 1.605 1.301 2.907 2.907 2.907h20.853c1.605 0 2.907-1.301 2.907-2.907v-20.853c0-1.605-1.301-2.907-2.907-2.907z"></path>
<path stroke-linejoin="round" stroke-linecap="round" stroke-miterlimit="4" stroke-width="2.6667" d="M9.333 2.667v26.667"></path>
<path stroke-linejoin="round" stroke-linecap="round" stroke-miterlimit="4" stroke-width="2.6667" d="M22.667 2.667v26.667"></path>
<path stroke-linejoin="round" stroke-linecap="round" stroke-miterlimit="4" stroke-width="2.6667" d="M2.667 16h26.667"></path>
<path stroke-linejoin="round" stroke-linecap="round" stroke-miterlimit="4" stroke-width="2.6667" d="M2.667 9.333h6.667"></path>
<path stroke-linejoin="round" stroke-linecap="round" stroke-miterlimit="4" stroke-width="2.6667" d="M2.667 22.667h6.667"></path>
<path stroke-linejoin="round" stroke-linecap="round" stroke-miterlimit="4" stroke-width="2.6667" d="M22.667 22.667h6.667"></path>
<path stroke-linejoin="round" stroke-linecap="round" stroke-miterlimit="4" stroke-width="2.6667" d="M22.667 9.333h6.667"></path>
</symbol>
<symbol id="hide" viewBox="10 10 20 22"><path d="M29.667 12.88 27.787 11l-7.454 7.453L12.88 11 11 12.88l7.453 7.453L11 27.787l1.88 1.88 7.453-7.454 7.454 7.454 1.88-1.88-7.454-7.454 7.454-7.453Z"/></symbol>

<symbol id="icon-github" viewBox="0 0 32 32">
<path   d="M16 23.992c4.414 0 7.992-3.578 7.992-7.992s-3.578-7.992-7.992-7.992c-4.414 0-7.992 3.578-7.992 7.992s3.578 7.992 7.992 7.992z"></path>
<path  style="fill: var(--color2, #fff)" d="M14.781 20.666c0-0.12-0.004-0.437-0.007-0.858-1.368 0.305-1.657-0.676-1.657-0.676-0.224-0.583-0.546-0.738-0.546-0.738-0.447-0.313 0.034-0.306 0.034-0.306 0.494 0.036 0.753 0.52 0.753 0.52 0.439 0.771 1.151 0.548 1.431 0.419 0.045-0.326 0.172-0.548 0.312-0.674-1.092-0.127-2.24-0.56-2.24-2.492 0-0.55 0.192-1.001 0.506-1.353-0.050-0.128-0.22-0.64 0.048-1.335 0 0 0.413-0.136 1.352 0.517 0.392-0.112 0.813-0.168 1.232-0.17 0.418 0.002 0.838 0.058 1.231 0.17 0.939-0.653 1.351-0.517 1.351-0.517 0.268 0.694 0.1 1.207 0.049 1.335 0.315 0.353 0.505 0.803 0.505 1.353 0 1.937-1.15 2.364-2.246 2.488 0.177 0.156 0.334 0.463 0.334 0.934 0 0.674-0.006 1.218-0.006 1.383 0 0.135 0.089 0.292 0.338 0.242 1.953-0.668 3.36-2.557 3.36-4.784 0-2.785-2.202-5.043-4.918-5.043s-4.918 2.258-4.918 5.043c0 2.228 1.409 4.118 3.364 4.785 0.246 0.046 0.336-0.11 0.336-0.243z"></path>
</symbol>
<symbol id="icon-instagram" viewBox="0 0 32 32">
<path d="M16 8.013c4.408 0 7.987 3.579 7.987 7.987s-3.579 7.987-7.987 7.987c-4.408 0-7.987-3.579-7.987-7.987s3.579-7.987 7.987-7.987zM16 11.008c-1.356 0-1.526 0.006-2.058 0.030-0.531 0.024-0.894 0.109-1.212 0.232-0.328 0.128-0.607 0.298-0.884 0.576s-0.448 0.556-0.576 0.884c-0.123 0.318-0.208 0.68-0.232 1.212-0.024 0.532-0.030 0.702-0.030 2.058s0.006 1.526 0.030 2.058c0.024 0.531 0.109 0.894 0.232 1.212 0.128 0.328 0.298 0.607 0.576 0.884s0.556 0.448 0.884 0.576c0.318 0.123 0.68 0.208 1.212 0.232 0.532 0.024 0.702 0.030 2.058 0.030s1.526-0.006 2.058-0.030c0.531-0.024 0.894-0.109 1.212-0.232 0.328-0.128 0.607-0.298 0.884-0.576s0.448-0.556 0.576-0.884c0.123-0.318 0.208-0.68 0.232-1.212 0.024-0.532 0.030-0.702 0.030-2.058s-0.006-1.526-0.030-2.058c-0.024-0.531-0.109-0.894-0.232-1.212-0.128-0.328-0.298-0.607-0.576-0.884s-0.556-0.448-0.884-0.576c-0.318-0.123-0.68-0.208-1.212-0.232-0.532-0.024-0.702-0.030-2.058-0.030zM16 11.907c1.333 0 1.491 0.005 2.017 0.029 0.487 0.022 0.751 0.104 0.927 0.172 0.233 0.091 0.399 0.199 0.574 0.373s0.283 0.341 0.373 0.574c0.068 0.176 0.15 0.44 0.172 0.927 0.024 0.526 0.029 0.684 0.029 2.017s-0.005 1.491-0.029 2.017c-0.022 0.487-0.104 0.751-0.172 0.927-0.091 0.233-0.199 0.399-0.373 0.574s-0.341 0.283-0.574 0.373c-0.176 0.068-0.44 0.15-0.927 0.172-0.526 0.024-0.684 0.029-2.017 0.029s-1.491-0.005-2.017-0.029c-0.487-0.022-0.751-0.104-0.927-0.172-0.233-0.091-0.399-0.199-0.574-0.373s-0.283-0.341-0.373-0.574c-0.068-0.176-0.15-0.44-0.172-0.927-0.024-0.526-0.029-0.684-0.029-2.017s0.005-1.491 0.029-2.017c0.022-0.487 0.104-0.751 0.172-0.927 0.091-0.233 0.199-0.399 0.373-0.574s0.341-0.283 0.574-0.373c0.176-0.068 0.44-0.15 0.927-0.172 0.526-0.024 0.684-0.029 2.017-0.029zM16 13.437c-1.416 0-2.563 1.148-2.563 2.563s1.148 2.563 2.563 2.563c1.416 0 2.563-1.148 2.563-2.563s-1.148-2.563-2.563-2.563zM16 17.664c-0.919 0-1.664-0.745-1.664-1.664s0.745-1.664 1.664-1.664c0.919 0 1.664 0.745 1.664 1.664s-0.745 1.664-1.664 1.664zM19.264 13.335c0 0.331-0.268 0.599-0.599 0.599s-0.599-0.268-0.599-0.599c0-0.331 0.268-0.599 0.599-0.599s0.599 0.268 0.599 0.599z"></path>
</symbol>
<symbol id="icon-telegram" viewBox="0 0 32 32">
<path d="M16 1.28c8.13 0 14.72 6.59 14.72 14.72s-6.59 14.72-14.72 14.72-14.72-6.59-14.72-14.72 6.59-14.72 14.72-14.72zM21.078 22c0.271-0.831 1.539-9.11 1.696-10.741 0.047-0.494-0.109-0.822-0.415-0.969-0.37-0.178-0.918-0.089-1.553 0.14-0.872 0.314-12.015 5.046-12.659 5.32-0.611 0.259-1.188 0.542-1.188 0.952 0 0.288 0.171 0.45 0.642 0.618 0.49 0.175 1.725 0.549 2.454 0.75 0.702 0.194 1.501 0.026 1.949-0.253 0.475-0.295 5.955-3.962 6.349-4.284s0.707 0.090 0.385 0.412c-0.321 0.321-4.083 3.972-4.579 4.478-0.602 0.614-0.175 1.25 0.229 1.505 0.461 0.291 3.78 2.516 4.28 2.874s1.007 0.519 1.471 0.519c0.464 0 0.708-0.611 0.94-1.321z"></path>
</symbol>
</defs>
</svg>
